<svg width="69" height="28" viewBox="0 0 69 28" fill="none" xmlns="http://www.w3.org/2000/svg">
<rect width="69" height="28" rx="4" fill="#4570F7"/>
<g clip-path="url(#clip0_8656_32902)">
<path d="M20 17.4824V22.3288" stroke="white" stroke-width="1.46971" stroke-miterlimit="10" stroke-linecap="round"/>
<path d="M20 5.66602V10.5014" stroke="white" stroke-width="1.46971" stroke-miterlimit="10" stroke-linecap="round"/>
<path d="M21.8477 17.1934L24.1661 21.213" stroke="white" stroke-width="1.46971" stroke-miterlimit="10" stroke-linecap="round"/>
<path d="M15.832 6.7793L18.1946 10.8725" stroke="white" stroke-width="1.46971" stroke-miterlimit="10" stroke-linecap="round"/>
<path d="M23.123 15.8008L27.2162 18.1634" stroke="white" stroke-width="1.46971" stroke-miterlimit="10" stroke-linecap="round"/>
<path d="M12.7812 9.83008L16.8744 12.1927" stroke="white" stroke-width="1.46971" stroke-miterlimit="10" stroke-linecap="round"/>
<path d="M23.4941 13.9961H28.3332" stroke="white" stroke-width="1.46971" stroke-miterlimit="10" stroke-linecap="round"/>
<path d="M11.666 13.9961H16.5749" stroke="white" stroke-width="1.46971" stroke-miterlimit="10" stroke-linecap="round"/>
<path d="M22.9902 12.2698L27.2157 9.83008" stroke="white" stroke-width="1.46971" stroke-miterlimit="10" stroke-linecap="round"/>
<path d="M12.7812 18.1632L17.0397 15.7051" stroke="white" stroke-width="1.46971" stroke-miterlimit="10" stroke-linecap="round"/>
<path d="M21.7441 10.9717L24.1655 6.7793" stroke="white" stroke-width="1.46971" stroke-miterlimit="10" stroke-linecap="round"/>
<path d="M15.832 21.2123L18.1946 17.1191" stroke="white" stroke-width="1.46971" stroke-miterlimit="10" stroke-linecap="round"/>
<path d="M20.0001 17.1193C21.725 17.1193 23.1232 15.7211 23.1232 13.9962C23.1232 12.2713 21.725 10.873 20.0001 10.873C18.2752 10.873 16.877 12.2713 16.877 13.9962C16.877 15.7211 18.2752 17.1193 20.0001 17.1193Z" stroke="white" stroke-width="0.881828" stroke-miterlimit="10" stroke-linecap="round"/>
</g>
<path d="M43.6582 19L42.4277 15.8281H38.4219L37.1982 19H36.0225L39.9326 8.96484H40.9785L44.8613 19H43.6582ZM42.0791 14.7959L40.9102 11.6445C40.8828 11.5625 40.8372 11.4281 40.7734 11.2412C40.7142 11.0544 40.6527 10.8607 40.5889 10.6602C40.5251 10.4596 40.4727 10.2979 40.4316 10.1748C40.3861 10.3617 40.3359 10.5485 40.2812 10.7354C40.2311 10.9176 40.181 11.0885 40.1309 11.248C40.0807 11.403 40.0374 11.5352 40.001 11.6445L38.8115 14.7959H42.0791ZM46.249 19V9.00586H47.4111V19H46.249ZM54.4316 13.7637H57.9248V18.6104C57.4007 18.7881 56.8607 18.9202 56.3047 19.0068C55.7533 19.0934 55.1357 19.1367 54.4521 19.1367C53.4131 19.1367 52.5358 18.9294 51.8203 18.5146C51.1094 18.0999 50.5693 17.5098 50.2002 16.7441C49.8311 15.974 49.6465 15.0602 49.6465 14.0029C49.6465 12.9684 49.8493 12.0661 50.2549 11.2959C50.665 10.5257 51.2552 9.92871 52.0254 9.50488C52.8001 9.0765 53.7298 8.8623 54.8145 8.8623C55.3704 8.8623 55.8968 8.91471 56.3936 9.01953C56.8949 9.11979 57.3597 9.26335 57.7881 9.4502L57.3438 10.4619C56.9746 10.3024 56.5667 10.1657 56.1201 10.0518C55.6781 9.93783 55.2201 9.88086 54.7461 9.88086C53.9303 9.88086 53.2308 10.0495 52.6475 10.3867C52.0687 10.724 51.6243 11.2002 51.3145 11.8154C51.0091 12.4307 50.8564 13.1598 50.8564 14.0029C50.8564 14.8369 50.9909 15.5638 51.2598 16.1836C51.5286 16.7988 51.9479 17.2773 52.5176 17.6191C53.0872 17.9609 53.821 18.1318 54.7188 18.1318C55.1699 18.1318 55.5573 18.1068 55.8809 18.0566C56.2044 18.002 56.4984 17.9382 56.7627 17.8652V14.8027H54.4316V13.7637Z" fill="white"/>
<defs>
<clipPath id="clip0_8656_32902">
<rect width="20" height="20" fill="white" transform="translate(10 4)"/>
</clipPath>
</defs>
</svg>
