<svg width="74" height="28" viewBox="0 0 74 28" fill="none" xmlns="http://www.w3.org/2000/svg">
<rect width="74" height="28" rx="4" fill="#3E8C22"/>
<path d="M15 12.114V15.9954C15 15.9954 15 20.9954 20 20.9954C25 20.9954 25 15.9954 25 15.9954V10.1133" stroke="white" stroke-width="1.41143" stroke-miterlimit="10" stroke-linecap="round"/>
<path d="M17.3496 14.9364V7.99219" stroke="white" stroke-width="1.41143" stroke-miterlimit="10" stroke-linecap="round"/>
<path d="M20 14.9368V6.5" stroke="white" stroke-width="1.41143" stroke-miterlimit="10" stroke-linecap="round"/>
<path d="M22.5801 14.9384V7.46484" stroke="white" stroke-width="1.41143" stroke-miterlimit="10" stroke-linecap="round"/>
<path d="M44.9619 19H43.7998V14.29H38.5498V19H37.3877V9.00586H38.5498V13.2646H43.7998V9.00586H44.9619V19ZM51.9824 9.8877C51.431 9.8877 50.9342 9.9834 50.4922 10.1748C50.0547 10.3617 49.681 10.6351 49.3711 10.9951C49.0658 11.3506 48.8311 11.7812 48.667 12.2871C48.5029 12.793 48.4209 13.3626 48.4209 13.9961C48.4209 14.8346 48.5508 15.5638 48.8105 16.1836C49.0749 16.7988 49.4668 17.2751 49.9863 17.6123C50.5104 17.9495 51.1644 18.1182 51.9482 18.1182C52.3949 18.1182 52.8141 18.0817 53.2061 18.0088C53.6025 17.9313 53.9876 17.8356 54.3613 17.7217V18.7334C53.9967 18.8701 53.6139 18.9704 53.2129 19.0342C52.8118 19.1025 52.3356 19.1367 51.7842 19.1367C50.7679 19.1367 49.918 18.9271 49.2344 18.5078C48.5553 18.084 48.0449 17.487 47.7031 16.7168C47.3659 15.9466 47.1973 15.0374 47.1973 13.9893C47.1973 13.2327 47.3021 12.5423 47.5117 11.918C47.7259 11.2891 48.0358 10.7467 48.4414 10.291C48.8516 9.83529 49.3529 9.48438 49.9453 9.23828C50.5423 8.98763 51.2259 8.8623 51.9961 8.8623C52.502 8.8623 52.9896 8.91243 53.459 9.0127C53.9284 9.11296 54.3522 9.25651 54.7305 9.44336L54.2656 10.4277C53.9466 10.2819 53.5957 10.1566 53.2129 10.0518C52.8346 9.94238 52.4245 9.8877 51.9824 9.8877ZM60.8008 9.8877C60.2493 9.8877 59.7526 9.9834 59.3105 10.1748C58.873 10.3617 58.4993 10.6351 58.1895 10.9951C57.8841 11.3506 57.6494 11.7812 57.4854 12.2871C57.3213 12.793 57.2393 13.3626 57.2393 13.9961C57.2393 14.8346 57.3691 15.5638 57.6289 16.1836C57.8932 16.7988 58.2852 17.2751 58.8047 17.6123C59.3288 17.9495 59.9827 18.1182 60.7666 18.1182C61.2132 18.1182 61.6325 18.0817 62.0244 18.0088C62.4209 17.9313 62.806 17.8356 63.1797 17.7217V18.7334C62.8151 18.8701 62.4323 18.9704 62.0312 19.0342C61.6302 19.1025 61.154 19.1367 60.6025 19.1367C59.5863 19.1367 58.7363 18.9271 58.0527 18.5078C57.3737 18.084 56.8633 17.487 56.5215 16.7168C56.1842 15.9466 56.0156 15.0374 56.0156 13.9893C56.0156 13.2327 56.1204 12.5423 56.3301 11.918C56.5443 11.2891 56.8542 10.7467 57.2598 10.291C57.6699 9.83529 58.1712 9.48438 58.7637 9.23828C59.3607 8.98763 60.0443 8.8623 60.8145 8.8623C61.3203 8.8623 61.8079 8.91243 62.2773 9.0127C62.7467 9.11296 63.1706 9.25651 63.5488 9.44336L63.084 10.4277C62.765 10.2819 62.4141 10.1566 62.0312 10.0518C61.653 9.94238 61.2428 9.8877 60.8008 9.8877Z" fill="white"/>
</svg>
