<svg width="73" height="28" viewBox="0 0 73 28" fill="none" xmlns="http://www.w3.org/2000/svg">
<rect width="73" height="28" rx="4" fill="#F8C300"/>
<g clip-path="url(#clip0_8656_32896)">
<path d="M20 19.8574V22.7712" stroke="black" stroke-width="1.46977" stroke-miterlimit="10" stroke-linecap="round"/>
<path d="M22.6855 19.0938L24.1663 21.6585" stroke="black" stroke-width="1.46977" stroke-miterlimit="10" stroke-linecap="round"/>
<path d="M24.8047 17.2148L27.2151 18.6038" stroke="black" stroke-width="1.46977" stroke-miterlimit="10" stroke-linecap="round"/>
<path d="M25.3086 14.4395H28.3326" stroke="black" stroke-width="1.46977" stroke-miterlimit="10" stroke-linecap="round"/>
<path d="M11.666 14.4395H14.6643" stroke="black" stroke-width="1.46977" stroke-miterlimit="10" stroke-linecap="round"/>
<path d="M12.7832 18.6039L15.4031 17.0938" stroke="black" stroke-width="1.46977" stroke-miterlimit="10" stroke-linecap="round"/>
<path d="M15.834 21.6585L17.3148 19.0938" stroke="black" stroke-width="1.46977" stroke-miterlimit="10" stroke-linecap="round"/>
<path d="M14.791 10.2728V14.4396C14.791 14.4396 14.791 19.6463 19.9977 19.6463C25.2043 19.6463 25.2043 14.4396 25.2043 14.4396V8.18945" stroke="black" stroke-width="1.46977" stroke-miterlimit="10" stroke-linecap="round"/>
<path d="M17.2402 13.4633V6.7832" stroke="black" stroke-width="1.46977" stroke-miterlimit="10" stroke-linecap="round"/>
<path d="M20 13.4629V5.22852" stroke="black" stroke-width="1.46977" stroke-miterlimit="10" stroke-linecap="round"/>
<path d="M22.6855 13.4637V6.23242" stroke="black" stroke-width="1.46977" stroke-miterlimit="10" stroke-linecap="round"/>
</g>
<path d="M43.8672 19L42.6367 15.8281H38.6309L37.4072 19H36.2314L40.1416 8.96484H41.1875L45.0703 19H43.8672ZM42.2881 14.7959L41.1191 11.6445C41.0918 11.5625 41.0462 11.4281 40.9824 11.2412C40.9232 11.0544 40.8617 10.8607 40.7979 10.6602C40.734 10.4596 40.6816 10.2979 40.6406 10.1748C40.5951 10.3617 40.5449 10.5485 40.4902 10.7354C40.4401 10.9176 40.39 11.0885 40.3398 11.248C40.2897 11.403 40.2464 11.5352 40.21 11.6445L39.0205 14.7959H42.2881ZM52.7266 19L51.4961 15.8281H47.4902L46.2666 19H45.0908L49.001 8.96484H50.0469L53.9297 19H52.7266ZM51.1475 14.7959L49.9785 11.6445C49.9512 11.5625 49.9056 11.4281 49.8418 11.2412C49.7826 11.0544 49.721 10.8607 49.6572 10.6602C49.5934 10.4596 49.541 10.2979 49.5 10.1748C49.4544 10.3617 49.4043 10.5485 49.3496 10.7354C49.2995 10.9176 49.2493 11.0885 49.1992 11.248C49.1491 11.403 49.1058 11.5352 49.0693 11.6445L47.8799 14.7959H51.1475ZM59.5898 9.8877C59.0384 9.8877 58.5417 9.9834 58.0996 10.1748C57.6621 10.3617 57.2884 10.6351 56.9785 10.9951C56.6732 11.3506 56.4385 11.7812 56.2744 12.2871C56.1104 12.793 56.0283 13.3626 56.0283 13.9961C56.0283 14.8346 56.1582 15.5638 56.418 16.1836C56.6823 16.7988 57.0742 17.2751 57.5938 17.6123C58.1178 17.9495 58.7718 18.1182 59.5557 18.1182C60.0023 18.1182 60.4215 18.0817 60.8135 18.0088C61.21 17.9313 61.5951 17.8356 61.9688 17.7217V18.7334C61.6042 18.8701 61.2214 18.9704 60.8203 19.0342C60.4193 19.1025 59.943 19.1367 59.3916 19.1367C58.3753 19.1367 57.5254 18.9271 56.8418 18.5078C56.1628 18.084 55.6523 17.487 55.3105 16.7168C54.9733 15.9466 54.8047 15.0374 54.8047 13.9893C54.8047 13.2327 54.9095 12.5423 55.1191 11.918C55.3333 11.2891 55.6432 10.7467 56.0488 10.291C56.459 9.83529 56.9603 9.48438 57.5527 9.23828C58.1497 8.98763 58.8333 8.8623 59.6035 8.8623C60.1094 8.8623 60.597 8.91243 61.0664 9.0127C61.5358 9.11296 61.9596 9.25651 62.3379 9.44336L61.873 10.4277C61.554 10.2819 61.2031 10.1566 60.8203 10.0518C60.4421 9.94238 60.0319 9.8877 59.5898 9.8877Z" fill="#19191A"/>
<defs>
<clipPath id="clip0_8656_32896">
<rect width="20" height="20" fill="white" transform="translate(10 4)"/>
</clipPath>
</defs>
</svg>
